<svg width="132" height="115" viewBox="0 0 132 115" fill="none" xmlns="http://www.w3.org/2000/svg">
<path d="M114.853 58.3714C117.974 52.9209 120.514 51.1345 129.155 54.5573C133.206 59.8489 132.643 62.771 126.772 67.9067C123.638 65.4223 122.863 63.7029 123.911 59.8017C119.886 61.3967 117.884 61.17 114.853 58.3714Z" fill="black"/>
<path d="M126.295 53.5469C111.474 48.283 106.002 41.3362 101.026 24.9977C102.775 19.8703 102.707 18.2324 97.6889 21.1836C99.9321 11.2552 98.0317 10.9167 91.491 15.4624C97.6889 -1.70115 92.9213 -5.51537 84.3395 8.78771L76.2345 19.7532H66.2224C59.3026 21.9483 55.8074 25.3419 50.9659 38.824L32.3721 97.9429C49.9669 114.459 61.9901 120.575 97.6889 107.001V92.1792C112.542 91.9827 128.792 82.0216 129.67 65.0461C128.914 65.9352 127.949 66.8764 126.772 67.9067C123.638 65.4223 122.863 63.7029 123.911 59.8017C119.886 61.3967 117.884 61.17 114.853 58.3714C117.599 53.5754 119.896 51.6164 126.295 53.5469Z" fill="#F59F18"/>
<path d="M123.785 73.4138C118.789 65.8086 101.621 67.3341 98.9932 76.2744" stroke="black" stroke-width="0.641385"/>
<path d="M78.729 42.677C73.9613 24.5599 99.7713 16.9316 100.183 35.5255L101.614 54.1194C97.7996 69.8526 85.4037 73.6668 81.1128 62.2243L78.729 42.677Z" fill="#EFB15E"/>
<path d="M97.689 46.2376C97.689 48.8707 95.5544 53.3891 92.9213 53.3891C90.2882 53.3891 88.1537 48.8707 88.1537 46.2376C88.1537 43.6045 90.2882 40.0397 92.9213 40.0397C95.5544 40.0397 97.689 43.6045 97.689 46.2376Z" fill="black"/>
<path d="M91.1271 34.7406C93.3606 29.6713 97.3541 30.48 94.0767 37.3625C89.5115 34.7554 88.0051 42.8404 83.589 41.9993C85.4987 37.9304 86.7536 37.0057 91.1271 34.7406Z" fill="black"/>
<path d="M41.9072 86.7716C42.8608 101.551 72.897 104.889 72.897 82.9575L70.9899 28.6062C70.8138 25.0005 71.3629 23.1562 72.897 20.0244C65.2185 22.8779 59.8195 24.0954 55.7334 36.7112L41.9072 78.1898V86.7716Z" fill="#7E4927" stroke="#7E4927" stroke-width="0.641385"/>
<path d="M36.1864 86.2946L32.3723 82.4805M35.7097 88.2017H29.5117" stroke="#F59F18" stroke-width="0.641385"/>
<path d="M78.6191 103.458V109.18M81.003 103.458L81.9565 106.319M83.3868 103.458L84.3403 107.749" stroke="#BA7D1D" stroke-width="0.641385"/>
<path d="M81.002 19.2432L84.0348 24.0943M83.0233 17.9795L85.3482 19.8996M85.0446 16.7158L88.1278 19.8487" stroke="#BA7D1D" stroke-width="0.641385"/>
<mask id="mask0_364_644" style="mask-type:alpha" maskUnits="userSpaceOnUse" x="-3" y="0" width="54" height="53">
<rect x="-2.48828" width="52.7768" height="52.7768" fill="#D9D9D9"/>
</mask>
<g mask="url(#mask0_364_644)">
<path d="M23.9001 38.4281C24.7797 38.4281 25.5128 38.1349 26.0992 37.5485C26.6856 36.9621 26.9788 36.2291 26.9788 35.3495C26.9788 34.4699 26.6856 33.7273 26.0992 33.1219C25.5128 32.5179 24.7797 32.2159 23.9001 32.2159C23.0205 32.2159 22.2875 32.5179 21.7011 33.1219C21.1147 33.7273 20.8215 34.4699 20.8215 35.3495C20.8215 36.2291 21.1147 36.9621 21.7011 37.5485C22.2875 38.1349 23.0205 38.4281 23.9001 38.4281ZM20.9864 28.6424H26.8139V14.7335H20.9864V28.6424ZM23.9001 49.4233C20.6749 49.4233 17.6695 48.8186 14.8841 47.6091C12.0986 46.3996 9.6709 44.7599 7.60088 42.6899C5.52939 40.6184 3.88891 38.1899 2.67944 35.4045C1.46997 32.619 0.865234 29.6137 0.865234 26.3884C0.865234 23.1632 1.46997 20.1578 2.67944 17.3724C3.88891 14.5869 5.52939 12.1585 7.60088 10.087C9.6709 8.01694 12.0986 6.37719 14.8841 5.16772C17.6695 3.95825 20.6749 3.35352 23.9001 3.35352C27.1254 3.35352 30.1307 3.95825 32.9162 5.16772C35.7016 6.37719 38.1301 8.01694 40.2016 10.087C42.2716 12.1585 43.9113 14.5869 45.1208 17.3724C46.3303 20.1578 46.935 23.1632 46.935 26.3884C46.935 29.6137 46.3303 32.619 45.1208 35.4045C43.9113 38.1899 42.2716 40.6184 40.2016 42.6899C38.1301 44.7599 35.7016 46.3996 32.9162 47.6091C30.1307 48.8186 27.1254 49.4233 23.9001 49.4233ZM23.9001 43.5959C28.738 43.5959 32.815 41.9371 36.1312 38.6194C39.4488 35.3033 41.1076 31.2263 41.1076 26.3884C41.1076 21.5505 39.4488 17.4728 36.1312 14.1552C32.815 10.839 28.738 9.18096 23.9001 9.18096C19.0623 9.18096 14.9852 10.839 11.6691 14.1552C8.35148 17.4728 6.69268 21.5505 6.69268 26.3884C6.69268 31.2263 8.35148 35.3033 11.6691 38.6194C14.9852 41.9371 19.0623 43.5959 23.9001 43.5959Z" fill="#EB5757"/>
</g>
</svg>
