<svg width="131" height="118" viewBox="0 0 131 118" fill="none" xmlns="http://www.w3.org/2000/svg">
<path d="M113.341 61.3714C116.462 55.9209 119.002 54.1345 127.644 57.5573C131.695 62.8489 131.131 65.771 125.26 70.9067C122.126 68.4223 121.351 66.7029 122.399 62.8017C118.375 64.3967 116.372 64.17 113.341 61.3714Z" fill="black"/>
<path d="M124.783 56.5469C109.962 51.283 104.49 44.3362 99.5146 27.9977C101.264 22.8703 101.196 21.2324 96.1772 24.1836C98.4203 14.2552 96.52 13.9167 89.9793 18.4624C96.1772 1.29885 91.4096 -2.51537 82.8278 11.7877L74.7228 22.7532H64.7107C57.7909 24.9483 54.2956 28.342 49.4542 41.824L30.8604 100.943C48.4552 117.459 60.4784 123.575 96.1772 110.001V95.1792C111.03 94.9827 127.28 85.0216 128.158 68.0461C127.402 68.9352 126.438 69.8764 125.26 70.9067C122.126 68.4223 121.351 66.7029 122.399 62.8017C118.375 64.3967 116.372 64.17 113.341 61.3714C116.088 56.5754 118.384 54.6164 124.783 56.5469Z" fill="#F59F18"/>
<path d="M122.928 71.8256C120.547 82.8354 103.711 86.6989 98.1357 74.6862" stroke="black" stroke-width="1.09952"/>
<path d="M77.2173 45.6768C72.4496 27.5597 98.2596 19.9313 98.6717 38.5253L100.102 57.1191C96.2879 72.8524 83.892 76.6665 79.6011 65.2241L77.2173 45.6768Z" fill="#EFB15E"/>
<path d="M96.1773 49.2374C96.1773 51.8705 94.0427 56.3889 91.4096 56.3889C88.7765 56.3889 86.642 51.8705 86.642 49.2374C86.642 46.6043 88.7765 43.0394 91.4096 43.0394C94.0427 43.0394 96.1773 46.6043 96.1773 49.2374Z" fill="black"/>
<path d="M89.0258 34.9344C92.8399 33.0273 103.38 46.5894 93.2205 39.3791C89.3954 35.1778 82.0719 45.3426 81.7496 44.6229C81.4272 43.9032 84.3718 36.2257 89.0258 34.9344Z" fill="black"/>
<path d="M40.3965 89.7713C41.35 104.551 71.3862 107.888 71.3862 85.9572L69.4792 31.6059C69.3031 28.0003 69.8522 26.1559 71.3862 23.0242C63.7078 25.8776 58.3087 27.0951 54.2227 39.711L40.3965 81.1896V89.7713Z" fill="#7E4927" stroke="#7E4927" stroke-width="1.09952"/>
<path d="M34.6747 89.2943L30.8606 85.4802M34.198 91.2014H28" stroke="#F59F18" stroke-width="1.09952"/>
<path d="M77.1074 106.458V112.179M79.4912 106.458L80.4448 109.319M81.8751 106.458L82.8286 110.749" stroke="#BA7D1D" stroke-width="1.09952"/>
<path d="M79.4902 22.2432L82.5231 27.0943M81.5116 20.9795L83.8365 22.8996M83.5329 19.7158L86.616 22.8487" stroke="#BA7D1D" stroke-width="1.09952"/>
<mask id="mask0_364_621" style="mask-type:alpha" maskUnits="userSpaceOnUse" x="-2" y="-3" width="53" height="53">
<rect x="-2" y="-3" width="52.7768" height="52.7768" fill="#D9D9D9"/>
</mask>
<g mask="url(#mask0_364_621)">
<path d="M36.813 44.994H12.4037V15.197L27.3572 0.298584L30.9306 3.54216C31.2605 3.83537 31.5353 4.25685 31.7552 4.80661C31.9751 5.35637 32.0851 5.8878 32.0851 6.40091V6.84071L29.7211 15.197H43.5201C45.0594 15.197 46.4155 15.7923 47.5883 16.9827C48.7611 18.1745 49.3475 19.5218 49.3475 21.0245V23.5534C49.3475 23.8466 49.3109 24.1669 49.2376 24.5144C49.1643 24.8633 49.0726 25.1843 48.9627 25.4775L42.2007 41.5305C41.7609 42.4834 41.0278 43.2985 40.0016 43.9758C38.9754 44.6546 37.9125 44.994 36.813 44.994ZM17.7914 39.1665H36.813L43.4651 23.5534V21.0245H22.8492L25.488 10.4691L17.7914 18.1657V39.1665ZM12.4037 15.197V21.0245H6.79619V39.1665H12.4037V44.994H0.96875V15.197H12.4037Z" fill="#27AE60"/>
</g>
</svg>
