<svg width="120" height="120" viewBox="0 0 120 120" fill="none" xmlns="http://www.w3.org/2000/svg">
<rect width="120" height="120" rx="60" fill="#B5F8E8"/>
<path d="M17.1004 50.2632C3.09579 48.2023 1.53641 50.8645 3.91387 58.7402C5.41903 60.1974 7.56632 60.53 8.65136 59.2109C11.316 54.1083 13.6659 53.4491 18.5408 54.0305C24.2283 54.7484 22.1701 53.3374 17.1004 50.2632Z" fill="#0B5F4B"/>
<path d="M51.0406 40.3924C39.0677 48.3446 32.0285 51.0307 18.5453 50.7532C5.55007 57.2309 -0.375182 61.0223 20.429 71.4749C35.895 74.39 42.2208 74.7233 51.0406 86.0742C67.5729 83.291 75.804 79.4395 89.1873 69.5911L77.8845 53.5789C70.4977 43.2624 64.7908 40.0903 51.0406 40.3924Z" fill="#2EE47B"/>
<path d="M93.4258 76.6553C78.1255 85.7177 69.4022 89.3452 53.3953 92.6675L57.6298 108.66C77.7735 113.1 87.2469 106.414 103.312 90.2933L93.4258 76.6553Z" fill="#2EE47B"/>
<path d="M93.4258 76.6553C99.5481 71.9458 95.3096 67.2364 89.1873 69.5911C75.804 79.4395 67.5729 83.291 51.0406 86.0742C45.8601 87.0161 46.3311 92.6675 53.3953 92.6675C69.4022 89.3452 78.1255 85.7177 93.4258 76.6553Z" fill="#27AE60"/>
<path d="M7.23828 58.7399C8.65112 65.3332 18.0701 67.6879 22.7795 61.5656" stroke="#0B5F4B" stroke-width="0.941893" stroke-linecap="round"/>
<path d="M67.4923 49.7919C75.3292 41.5755 80.34 37.7147 90.0977 31.896C101.408 36.8184 107.341 41.2189 116 56.8561C110.348 63.9203 93.3955 58.8998 79.2659 48.3791L68.9051 52.1467C67.1898 51.7903 66.9754 51.2362 67.4923 49.7919Z" fill="#27AE60"/>
<path d="M66.0798 41.7859L67.4923 23.4189C56.1892 15.413 43.4736 14.0001 30.7589 14C27.9324 22.477 45.6374 39.2591 66.0798 41.7859Z" fill="#0B5F4B"/>
<path d="M41.5903 46.4954C41.077 42.83 41.3757 41.156 48.1836 42.2568L52.4221 45.5535C53.5273 48.7157 53.1294 49.7054 49.5964 49.3211L41.5903 46.4954Z" fill="#0B5F4B"/>
<path d="M36.8809 55.4434C36.8809 48.8501 46.7707 49.792 46.2998 56.8562M41.5903 46.4954C41.077 42.83 41.3757 41.156 48.1836 42.2568L52.4221 45.5535C53.5273 48.7157 53.1294 49.7054 49.5964 49.3211L41.5903 46.4954Z" stroke="#0B5F4B" stroke-width="0.941893"/>
<path d="M38.7917 75.223L35.4951 78.5196M41.1465 76.1649V80.4034" stroke="#2EE47B" stroke-width="0.941893"/>
<path d="M58.5713 88.8805C70.4873 86.6505 76.8886 84.3944 87.299 76.6359" stroke="#0B5F4B" stroke-width="0.941893" stroke-linecap="round"/>
<path d="M75.9971 44.6115C81.172 50.0089 84.7967 52.2426 92.0093 55.4433M94.364 40.8439C96.4018 45.7235 97.93 47.9001 102.37 49.321M87.7707 43.1987C91.5383 48.3791 91.0674 46.4953 96.2478 49.7919" stroke="#0B5F4B" stroke-width="0.941893" stroke-linecap="round"/>
</svg>
