<svg width="126" height="118" viewBox="0 0 126 118" fill="none" xmlns="http://www.w3.org/2000/svg">
<path d="M108.597 61.3714C111.718 55.9209 114.258 54.1345 122.9 57.5573C126.95 62.8489 126.387 65.7711 120.516 70.9067C117.382 68.4223 116.607 66.7029 117.655 62.8017C113.63 64.3967 111.628 64.17 108.597 61.3714Z" fill="black"/>
<path d="M120.039 56.5469C105.218 51.283 99.7459 44.3362 94.7704 27.9977C96.5195 22.8703 96.4515 21.2324 91.4331 24.1836C93.6762 14.2552 91.7758 13.9167 85.2351 18.4624C91.4331 1.29885 86.6654 -2.51537 78.0836 11.7877L69.9786 22.7532H59.9666C53.0468 24.9483 49.5515 28.3419 44.7101 41.824L26.1162 100.943C43.7111 117.459 55.7343 123.575 91.4331 110.002V95.1792C106.286 94.9827 122.536 85.0216 123.414 68.0461C122.658 68.9352 121.694 69.8764 120.516 70.9067C117.382 68.4223 116.607 66.7029 117.655 62.8017C113.63 64.3967 111.628 64.17 108.597 61.3714C111.343 56.5754 113.64 54.6164 120.039 56.5469Z" fill="#F59F18"/>
<path d="M117.529 76.4142C114.771 77.9179 97.6157 79.3565 92.7373 79.2748" stroke="black" stroke-width="1.09952"/>
<path d="M72.4731 45.6768C67.7055 27.5597 93.5155 19.9313 93.9276 38.5253L95.3579 57.1191C91.5437 72.8524 79.1478 76.6665 74.8569 65.2241L72.4731 45.6768Z" fill="#EFB15E"/>
<path d="M91.4331 49.2374C91.4331 51.8705 89.2986 56.3889 86.6655 56.3889C84.0324 56.3889 81.8978 51.8705 81.8978 49.2374C81.8978 46.6043 84.0324 43.0394 86.6655 43.0394C89.2986 43.0394 91.4331 46.6043 91.4331 49.2374Z" fill="black"/>
<path d="M84.2816 34.9344C88.0958 33.0273 91.9099 37.3182 87.1422 41.1324C82.6186 42.2564 80.1159 42.4501 75.6999 41.609C77.6096 37.5402 79.6277 36.2257 84.2816 34.9344Z" fill="black"/>
<path d="M35.6523 89.7713C36.6059 104.551 66.6421 107.888 66.6421 85.9572L64.735 31.6059C64.5589 28.0003 65.108 26.1559 66.6421 23.0242C58.9636 25.8776 53.5646 27.0951 49.4785 39.711L35.6523 81.1896V89.7713Z" fill="#7E4927" stroke="#7E4927" stroke-width="1.09952"/>
<path d="M29.9306 89.2943L26.1165 85.4802M29.4538 91.2014H23.2559" stroke="#F59F18" stroke-width="1.09952"/>
<path d="M72.3633 106.458V112.179M74.7471 106.458L75.7006 109.319M77.1309 106.458L78.0845 110.749" stroke="#BA7D1D" stroke-width="1.09952"/>
<path d="M74.7461 22.2427L77.7789 27.0939M76.7674 20.979L79.0924 22.8991M78.7887 19.7153L81.8719 22.8482" stroke="#BA7D1D" stroke-width="1.09952"/>
<mask id="mask0_364_620" style="mask-type:alpha" maskUnits="userSpaceOnUse" x="-3" y="-3" width="54" height="53">
<rect x="-2.74414" y="-3" width="52.7768" height="52.7768" fill="#D9D9D9"/>
</mask>
<g mask="url(#mask0_364_620)">
<path d="M23.6443 35.4281C24.5239 35.4281 25.2569 35.1349 25.8433 34.5485C26.4297 33.9621 26.7229 33.2291 26.7229 32.3495C26.7229 31.4699 26.4297 30.7273 25.8433 30.1219C25.2569 29.5179 24.5239 29.2159 23.6443 29.2159C22.7647 29.2159 22.0316 29.5179 21.4452 30.1219C20.8588 30.7273 20.5656 31.4699 20.5656 32.3495C20.5656 33.2291 20.8588 33.9621 21.4452 34.5485C22.0316 35.1349 22.7647 35.4281 23.6443 35.4281ZM20.7305 25.6424H26.558V11.7335H20.7305V25.6424ZM23.6443 46.4233C20.419 46.4233 17.4137 45.8186 14.6282 44.6091C11.8428 43.3996 9.41504 41.7599 7.34502 39.6899C5.27353 37.6184 3.63305 35.1899 2.42358 32.4045C1.21411 29.619 0.609375 26.6137 0.609375 23.3884C0.609375 20.1632 1.21411 17.1578 2.42358 14.3724C3.63305 11.5869 5.27353 9.15845 7.34502 7.08696C9.41504 5.01694 11.8428 3.37719 14.6282 2.16772C17.4137 0.95825 20.419 0.353516 23.6443 0.353516C26.8695 0.353516 29.8749 0.95825 32.6603 2.16772C35.4458 3.37719 37.8742 5.01694 39.9457 7.08696C42.0157 9.15845 43.6555 11.5869 44.865 14.3724C46.0744 17.1578 46.6792 20.1632 46.6792 23.3884C46.6792 26.6137 46.0744 29.619 44.865 32.4045C43.6555 35.1899 42.0157 37.6184 39.9457 39.6899C37.8742 41.7599 35.4458 43.3996 32.6603 44.6091C29.8749 45.8186 26.8695 46.4233 23.6443 46.4233ZM23.6443 40.5959C28.4821 40.5959 32.5592 38.9371 35.8753 35.6194C39.1929 32.3033 40.8517 28.2263 40.8517 23.3884C40.8517 18.5505 39.1929 14.4728 35.8753 11.1552C32.5592 7.83903 28.4821 6.18096 23.6443 6.18096C18.8064 6.18096 14.7294 7.83903 11.4132 11.1552C8.09562 14.4728 6.43682 18.5505 6.43682 23.3884C6.43682 28.2263 8.09562 32.3033 11.4132 35.6194C14.7294 38.9371 18.8064 40.5959 23.6443 40.5959Z" fill="#F2C94C"/>
</g>
</svg>
